<svg xmlns="http://www.w3.org/2000/svg" viewBox="0 0 135.5 50.8">
  <g transform="translate(-71.3 -329.2)">
    <g aria-label="LICHT">
      <path d="M104.9 374v-24.6h1.9v23.1H118v1.6zM124.5 374v-24.6h1.9V374zM153.4 373.3q-3.4 1.2-7 1.2-5.8 0-9.4-3.4-3.6-3.4-3.6-8.9 0-6 4-9.6 3.8-3.6 9.8-3.6 3.2 0 6.2.9v1.8q-3-1.2-6.2-1.2-5.3 0-8.5 3.2-3.3 3.1-3.3 8.4 0 5 3.1 8 3.2 2.8 8 2.8 3.8 0 6.9-1.3zM178.7 374v-11.8h-15.9v11.9h-2v-24.7h2v11.3h16v-11.3h1.8V374zM196.7 351v23h-2v-23h-8v-1.6h18v1.6z"/>
    </g>
    <circle cx="86.4" cy="346.2" r="12.4" fill="none" stroke="#000" stroke-width="1.1"/>
  </g>
</svg>
